<mxfile host="app.diagrams.net" modified="2023-10-08T15:51:19.403Z" agent="Mozilla/5.0 (Windows NT 10.0; Win64; x64) AppleWebKit/537.36 (KHTML, like Gecko) Chrome/117.0.0.0 Safari/537.36" version="22.0.4" etag="QuxrM6FdznaoA9_k7VLR" type="github">
  <diagram name="Seite-1" id="8oEPixKDPLuXeehc6DzP">
    <mxGraphModel>
      <root>
        <mxCell id="0" />
        <mxCell id="1" parent="0" />
      </root>
    </mxGraphModel>
  </diagram>
</mxfile>
